<svg width="238" height="285" viewBox="0 0 238 285" fill="none" xmlns="http://www.w3.org/2000/svg">
<path fill-rule="evenodd" clip-rule="evenodd" d="M0 0H122.653C170.714 0 203.396 15.3846 216.084 43.0769H189.939C184.171 43.0769 178.404 41.5385 173.79 38.0769C161.486 29.2308 143.415 25 120.73 25H34.2197C31.9128 25 29.9903 26.9231 29.9903 29.2308C29.9903 36.9231 23.8384 43.0769 16.1486 43.0769C7.30533 43.0769 0 35.7692 0 26.9231V0ZM34.6042 260H130.727C149.183 260 164.178 257.692 176.866 253.077C179.557 252.308 182.249 251.538 184.94 251.538H225.312C209.163 273.077 178.019 285 131.496 285H3.07593C1.53796 285 0.384491 283.846 0.384491 282.308V254.231C0.384491 252.692 1.53796 251.538 3.07593 251.538H26.1454C28.4523 251.538 30.3748 253.462 30.3748 255.769C30.3748 258.077 32.2973 260 34.6042 260Z" fill="#353535"/>
<path d="M192.63 76.5385C192.63 110.769 166.1 128.077 120.73 128.077H29.9903V88.0769C29.9903 79.6154 23.0695 73.0769 14.9952 73.0769C6.92084 73.0769 0 80 0 88.0769V206.538C0 215 6.92084 221.538 14.9952 221.538H16.1486C23.8384 221.538 29.9903 215.385 29.9903 207.692V153.077H130.727C180.711 153.077 208.01 169.231 208.01 206.538V220.769C208.01 221.154 208.394 221.923 209.163 221.923H237.231C238 218.077 238 213.846 238 209.231C238 180.385 225.696 159.615 204.165 147.692C195.706 143.077 194.553 131.154 201.858 124.615C214.931 112.308 223.005 95.3846 223.005 73.0769L192.63 76.5385Z" fill="#4C2FFF"/>
</svg>
